<svg xmlns="http://www.w3.org/2000/svg" xmlns:xlink="http://www.w3.org/1999/xlink" width="797.72274" height="600" viewBox="0 0 797.72274 600">
  <defs>
    <style>
      .a {
        fill: #778389;
      }

      .b {
        fill: #3b4b55;
      }

      .c {
        fill: url(#a);
      }

      .d {
        fill: url(#b);
      }

      .e {
        fill: url(#c);
      }

      .f {
        fill: url(#d);
      }

      .g {
        fill: url(#e);
      }

      .h {
        fill: url(#f);
      }

      .i {
        fill: none;
      }

      .j {
        fill: #47e1f6;
      }

      .k {
        fill: #65757e;
      }

      .l {
        fill: #3b74a2;
      }

      .m {
        fill: url(#g);
      }

      .n {
        fill: url(#h);
      }

      .o {
        fill: gray;
      }

      .p {
        fill: #ffdaff;
      }

      .q {
        fill: #768389;
      }

      .r {
        fill: #b3b3b3;
      }
    </style>
    <linearGradient id="a" data-name="Безымянный градиент" x1="394.99461" y1="570.82258" x2="397.26099" y2="301.93011" gradientTransform="matrix(1, 0, 0, -1, 0, 601.43518)" gradientUnits="userSpaceOnUse">
      <stop offset="0" stop-color="#0b232e"/>
      <stop offset="0.29" stop-color="#0f2631"/>
      <stop offset="0.58" stop-color="#1b303b"/>
      <stop offset="0.87" stop-color="#2f414b"/>
      <stop offset="1" stop-color="#3b4b55"/>
    </linearGradient>
    <linearGradient id="b" data-name="Безымянный градиент 2" x1="244.31436" y1="331.964" x2="308.16605" y2="331.964" gradientTransform="matrix(1, 0, 0, -1, 0, 601.43518)" gradientUnits="userSpaceOnUse">
      <stop offset="0" stop-color="#3b74a2"/>
      <stop offset="0.05" stop-color="#3b6a90"/>
      <stop offset="0.14" stop-color="#3b5f7a"/>
      <stop offset="0.23" stop-color="#3b5669"/>
      <stop offset="0.36" stop-color="#3b505e"/>
      <stop offset="0.53" stop-color="#3b4c57"/>
      <stop offset="1" stop-color="#3b4b55"/>
    </linearGradient>
    <linearGradient id="c" data-name="Безымянный градиент 3" x1="476.22776" y1="331.964" x2="540.0785" y2="331.964" gradientTransform="matrix(1, 0, 0, -1, 0, 601.43518)" gradientUnits="userSpaceOnUse">
      <stop offset="0" stop-color="#3b4b55"/>
      <stop offset="0.47" stop-color="#3b4c57"/>
      <stop offset="0.64" stop-color="#3b505e"/>
      <stop offset="0.77" stop-color="#3b5669"/>
      <stop offset="0.86" stop-color="#3b5f7a"/>
      <stop offset="0.95" stop-color="#3b6a90"/>
      <stop offset="1" stop-color="#3b74a2"/>
    </linearGradient>
    <linearGradient id="d" data-name="Безымянный градиент 4" x1="392.99966" y1="513.22792" x2="391.49402" y2="338.47792" gradientTransform="matrix(1, 0, 0, -1, 0, 601.43518)" gradientUnits="userSpaceOnUse">
      <stop offset="0" stop-color="#3b4b55"/>
      <stop offset="0.36" stop-color="#404a53" stop-opacity="0.97"/>
      <stop offset="0.55" stop-color="#52464e" stop-opacity="0.88"/>
      <stop offset="0.7" stop-color="#713f45" stop-opacity="0.72"/>
      <stop offset="0.82" stop-color="#9d3639" stop-opacity="0.5"/>
      <stop offset="0.93" stop-color="#d52928" stop-opacity="0.21"/>
      <stop offset="1" stop-color="#ff201c" stop-opacity="0"/>
    </linearGradient>
    <linearGradient id="e" data-name="Безымянный градиент 5" x1="397.64158" y1="373.29798" x2="396.16764" y2="201.67023" gradientTransform="matrix(1, 0, 0, -1, 0, 601.43518)" gradientUnits="userSpaceOnUse">
      <stop offset="0" stop-color="#3f3b41"/>
      <stop offset="0.2" stop-color="#3f3d45"/>
      <stop offset="0.41" stop-color="#3e4451"/>
      <stop offset="0.61" stop-color="#3d5065"/>
      <stop offset="0.81" stop-color="#3c6182"/>
      <stop offset="1" stop-color="#3b74a2"/>
    </linearGradient>
    <linearGradient id="f" data-name="Безымянный градиент 6" x1="396.69389" y1="561.10716" x2="395.94899" y2="475.26952" gradientTransform="matrix(1, 0, 0, -1, 0, 601.43518)" gradientUnits="userSpaceOnUse">
      <stop offset="0" stop-color="#3f3b41"/>
      <stop offset="0.23" stop-color="#4f393e" stop-opacity="0.92"/>
      <stop offset="0.5" stop-color="#7b3335" stop-opacity="0.69"/>
      <stop offset="0.81" stop-color="#c52827" stop-opacity="0.3"/>
      <stop offset="1" stop-color="#ff201c" stop-opacity="0"/>
    </linearGradient>
    <linearGradient id="g" data-name="Безымянный градиент 14" x1="388.57695" y1="195.59576" x2="397.75344" y2="351.65989" gradientTransform="matrix(1, 0, 0, -1, 0, 601.43518)" gradientUnits="userSpaceOnUse">
      <stop offset="0" stop-color="#3b74a2"/>
      <stop offset="0.19" stop-color="#3b78a5"/>
      <stop offset="0.38" stop-color="#3d84ae"/>
      <stop offset="0.58" stop-color="#3f98be"/>
      <stop offset="0.77" stop-color="#42b5d4"/>
      <stop offset="0.96" stop-color="#46d9f0"/>
      <stop offset="1" stop-color="#47e1f6"/>
    </linearGradient>
    <radialGradient id="h" data-name="Безымянный градиент 15" cx="396.61078" cy="360.13841" r="213.94902" gradientTransform="matrix(1, 0, 0, -1, 0, 601.43518)" gradientUnits="userSpaceOnUse">
      <stop offset="0" stop-color="#3b74a2" stop-opacity="0.2"/>
      <stop offset="0.1" stop-color="#3b78a5" stop-opacity="0.23"/>
      <stop offset="0.25" stop-color="#3d83ae" stop-opacity="0.31"/>
      <stop offset="0.44" stop-color="#3f96bc" stop-opacity="0.45"/>
      <stop offset="0.65" stop-color="#42b0d0" stop-opacity="0.64"/>
      <stop offset="0.89" stop-color="#45d0e9" stop-opacity="0.87"/>
      <stop offset="1" stop-color="#47e1f6"/>
    </radialGradient>
  </defs>
  <g>
    <path class="a" d="M797.72274,599.9525H712.77262c.85585-24.13789,8.63767-54.47266,39.543-68.03932C775.61355,542.69041,793.19,568.44488,797.72274,599.9525Z"/>
    <path class="a" d="M78.16678,592.75709v1.25208a3.61508,3.61508,0,0,1-.07924.96676,15.79666,15.79666,0,0,1-.22188,1.9177c-.07925.63395-.25359,1.69584-.41207,2.55165a1.00013,1.00013,0,0,1-.111.55472H0c2.8528-32.18912,19.22472-59.21152,41.77771-71.85891a103.87143,103.87143,0,0,1,9.50934,8.32067l.7449.7449C63.39561,548.38016,79.45055,568.65092,78.16678,592.75709Z"/>
    <path class="b" d="M752.66433,531.75468l-.34868.1585c-30.90536,13.56666-38.68718,43.90148-39.543,68.03932H77.23167a1.0002,1.0002,0,0,1,.11094-.55472c.15848-.85585.30113-1.71166.41207-2.55165s.15848-1.28375.22188-1.9177a3.98581,3.98581,0,0,1,.07924-.96676,6.58746,6.58746,0,0,0,0-1.25208c1.28377-24.05862-14.85042-44.37692-26.08729-55.55038l-.7449-.7449a103.86877,103.86877,0,0,0-9.50934-8.32067l-.15849-.09509c20.25494-16.07086,83.65054-30.33487,130.30971-39.09931q8.53463-1.59285,16.21342-2.94787c11.09423-1.96525,20.60357-3.5026,27.11747-4.53277h0c6.43465-1.03017,10.19084-1.58489,10.19084-1.58489s27.03822-1.58489,66.56538-3.29655c82.27166-3.566,218.71484-7.63918,277.78368,1.10945,4.94485.729,9.92143,1.58489,14.898,2.45656,8.44744,1.58489,16.9108,3.26487,25.35824,5.18257q7.55991,1.71168,15.02478,3.61355A951.14353,951.14353,0,0,1,752.66433,531.75468Z"/>
    <path class="b" d="M558.3251,68.61807C422.817,15.00123,300.84384,42.8636,238.17729,65.32149c88.0955-87.50863,230.45081-87.03286,317.9594,1.06265Q557.23867,67.49348,558.3251,68.61807Z"/>
    <path class="c" d="M620.46863,222.43165c0,122.829-100.21262,222.42348-223.834,222.42348S172.753,345.26064,172.753,222.43165a220.80667,220.80667,0,0,1,13.69345-76.80378h0q2.91618-7.92445,6.4505-15.56362a1.76075,1.76075,0,0,1,.11094-.25359,223.04183,223.04183,0,0,1,45.12183-64.48917c62.6507-22.4579,184.62383-50.32027,320.14781,3.29656a223.20027,223.20027,0,0,1,41.20714,59.73452h0q4.04144,8.59011,7.33805,17.56058A220.553,220.553,0,0,1,620.46863,222.43165Z"/>
    <path class="d" d="M262.41027,209.80007s-18.92359,4.94485-18.06773,23.076c.71319,15.23079,15.8489,32.68043,21.80808,56.45378,5.62636,22.67977,22.66393,34.24948,42.01543,39.81243Z"/>
    <path class="e" d="M521.98358,209.80007s18.90773,4.94485,18.06774,23.076c-.71322,15.23079-15.8489,32.68043-21.8081,56.45378-5.62634,22.67977-22.66391,34.24948-42.01546,39.81243Z"/>
    <path class="b" d="M523.616,209.21367c19.66849-69.022-32.934-111.70306-32.934-111.70306L382.21212,82.85037h-.47548L293.7594,97.51061s-52.60251,42.63355-32.934,111.70306c0,0,22.18847,97.756,45.75578,119.34223,25.7703,23.64656,72.63551,1.18867,72.63551,1.18867h0l10.84065-2.77356,15.16738,2.77356s47.29312,23.21863,73.61817-3.89884C500.60338,303.38784,523.616,209.21367,523.616,209.21367Z"/>
    <path class="f" d="M523.616,209.21367c19.66849-69.022-32.934-111.70306-32.934-111.70306L382.21212,82.85037h-.47548L293.7594,97.51061s-52.60251,42.63355-32.934,111.70306c0,0,22.18847,97.756,45.75578,119.34223,25.7703,23.64656,72.63551,1.18867,72.63551,1.18867h0l10.84065-2.77356,15.16738,2.77356s47.29312,23.21863,73.61817-3.89884C500.60338,303.38784,523.616,209.21367,523.616,209.21367Z"/>
    <circle class="g" cx="396.60292" cy="349.08023" r="126.15725"/>
    <path class="h" d="M521.42886,55.87555a124.77872,124.77872,0,0,1-12.67912,39.84414,2.39408,2.39408,0,0,1-.23772.44376h0a1.79226,1.79226,0,0,1-.19018.33283q-2.47237,4.75465-5.3728,9.23991a126.189,126.189,0,0,1-212.34358.45962q-2.56749-3.94636-4.75467-8.08294c-.111-.19018-.22188-.39622-.317-.60226h0a124.82574,124.82574,0,0,1-13.83609-42.63354C331.82844,38.17233,421.58078,26.19056,521.42886,55.87555Z"/>
    <path class="i" d="M253.01186,522.18193h0l-52.07949-29.06688Z"/>
    <path class="j" d="M270.28716,505.47718l.66565.28526A1.09363,1.09363,0,0,0,270.28716,505.47718Z"/>
    <path class="j" d="M298.76763,533.5773l-27.75141-27.81486-17.8934,16.45117h0l27.75142,29.33633a1.03017,1.03017,0,0,0,1.44225,0l16.45117-16.45116c.56894,0,1.03017-.19183,1.03017-.76077a1.0302,1.0302,0,0,0-1.0302-1.03017Z"/>
    <path class="k" d="M200.97992,493.14673l52.07949,29.06688,17.95681-16.45117-.66565-.28526L210.41,479.29481a8.17783,8.17783,0,0,0-2.88451-.68149l-35.31135-1.58489h.09509Z"/>
    <path class="l" d="M253.05941,522.21361h0l-52.032-29.0352-28.7816-16.1183h0a.36453.36453,0,0,0-.55471.317v11.09424a.38034.38034,0,0,0,.23774.34867c4.51693,1.58489,71.44684,25.86542,108.94535,62.52394l-27.78313-29.22538Z"/>
    <path class="i" d="M543.76,522.24534h0l52.06365-29.051Z"/>
    <path class="j" d="M526.4688,505.58813l-.64981.28527A1.01425,1.01425,0,0,1,526.4688,505.58813Z"/>
    <path class="j" d="M498.00419,533.64071,525.819,505.81l17.89342,16.45117h0l-27.8148,29.28873a1.03018,1.03018,0,0,1-1.44226,0l-16.45116-16.4353a1.03019,1.03019,0,0,1-.01713-1.45681Z"/>
    <path class="k" d="M595.77606,493.21014l-52.06365,29.051L525.819,505.81l.64981-.28527,59.94056-26.18237a8.717,8.717,0,0,1,2.88451-.68149l35.31135-1.58489H624.526Z"/>
    <path class="l" d="M543.71241,522.277h0l52.01611-29.0352,28.74993-16.03908h0a.38035.38035,0,0,1,.55472.33282v11.09423a.36452.36452,0,0,1-.23772.34867c-4.51695,1.58489-71.44688,25.88124-108.94534,62.52394l27.76721-29.1937Z"/>
    <path class="m" d="M618.36075,253.06758a52.3014,52.3014,0,0,0-85.06108,18.27378,23.56787,23.56787,0,0,0-5.00826-.99849h-2.01279a23.40882,23.40882,0,0,0-21.96655,15.32589A23.36126,23.36126,0,0,0,477.258,284.908a34.86758,34.86758,0,0,0-61.0975,5.72145s-8.05122-8.68519-1.25207-52.77685c0-.39622-35.07363.50718-57.94358-3.80372,3.31241,10.55537,9.28745,36.5951-11.18932,56.58057h0a23.37714,23.37714,0,0,0-38.75056,1.26792A42.04714,42.04714,0,0,0,240.82408,280.93a54.33007,54.33007,0,0,0-64.69522-21.38018c.41208,2.47243.8717,4.94485,1.37886,7.3856a219.65019,219.65019,0,0,0,26.94313,69.10119A223.56935,223.56935,0,0,0,220.062,358.76388a53.88594,53.88594,0,0,0,14.07383-10.42858,51.829,51.829,0,0,0,3.61355-4.07318c.79245-.99849,1.58489-2.02865,2.28225-3.07469a41.96785,41.96785,0,0,0,29.79594,12.36215,42.88809,42.88809,0,0,0,5.37277-.34868l18.6383,52.80855,180.77257,6.83088,46.13613-28.06839L537.88,374.34336l26.94313-34.36044a51.95246,51.95246,0,0,0,17.19607,2.9162q1.48983,0,2.99547-.09509h.14263c1.58489-2.42488,3.16978-4.89731,4.58036-7.3856a220.29987,220.29987,0,0,0,28.86083-82.1607Z"/>
    <path class="n" d="M620.46863,222.43165c0,122.829-100.21262,222.42348-223.834,222.42348S172.753,345.26064,172.753,222.43165a220.80667,220.80667,0,0,1,13.69345-76.80378h0q2.91618-7.92445,6.4505-15.56362a1.76075,1.76075,0,0,1,.11094-.25359,223.04183,223.04183,0,0,1,45.12183-64.48917c62.6507-22.4579,184.62383-50.32027,320.14781,3.29656a223.20027,223.20027,0,0,1,41.20714,59.73452h0q4.04144,8.59011,7.33805,17.56058A220.553,220.553,0,0,1,620.46863,222.43165Z"/>
    <path class="i" d="M269.79584,420.98669h0s18.02022,11.69649,58.54585,18.67a300.98752,300.98752,0,0,1-58.53-18.68587Z"/>
    <path class="i" d="M523.83788,420.00406h0a298.60819,298.60819,0,0,1-53.69609,18.09947C507.41844,430.71793,523.83788,420.00406,523.83788,420.00406Z"/>
    <path class="i" d="M605.63408,298.88676c-2.31392,9.50934-13.91533,30.11291-17.21188,35.771a4.18486,4.18486,0,0,1,.45963,0c4.18413-7.32219,15.18323-27.165,16.72057-35.54908C605.61822,299.04523,605.61822,298.98185,605.63408,298.88676Z"/>
    <path class="o" d="M205.6395,334.68942c31.90384-3.59771,77.04151,43.26751,73.93511,75.75776-2.29808,2.85278-5.769,6.52974-9.76293,10.52369a300.98844,300.98844,0,0,0,58.53,18.68587c4.4694.77658,9.22407,1.58489,14.264,2.15543v-1.41058h0a17.84584,17.84584,0,0,1,17.78247-17.79833h72.68309a17.84589,17.84589,0,0,1,17.79833,17.79833h0v.88753c7.02105-.93507,13.4557-2.02865,19.38322-3.16978a298.60835,298.60835,0,0,0,53.58509-18.11528c-3.58187-3.59768-6.68824-6.926-8.79612-9.50934C511.872,378.17881,556.55,331.694,588.42215,334.70526c3.29655-5.72145,14.898-26.27748,17.21188-35.771a8.88284,8.88284,0,0,0,.14264-1.03017C532.428,301.40673,481.553,392.99752,481.553,392.99752c-78.51547,24.85107-171.72286-1.69584-171.72286-1.69584-41.84109-79.95771-112.971-95.64813-122.33767-95.01416.45962,8.09879,14.83457,33.28269,17.90926,38.65547Z"/>
    <path class="o" d="M186.52573,296.49358v.50718l.87169-.72906A1.91747,1.91747,0,0,0,186.52573,296.49358Z"/>
    <path class="p" d="M605.60235,299.14035c-1.58489,8.38406-12.53648,28.22689-16.72057,35.5491h.09509L624.003,369.0974c28.97179-32.82309-16.10249-69.545-18.147-71.24083h0a8.88049,8.88049,0,0,1-.14263,1.03016A.36317.36317,0,0,0,605.60235,299.14035Z"/>
    <path class="p" d="M205.40177,334.92717c-3.07469-5.30939-17.43379-30.55668-17.90926-38.65547h0l-.87169.72906c-6.56145,5.53128-45.73993,40.87433-15.944,72.065Z"/>
    <path class="b" d="M554.71155,443.2861c-3.01128-25.70692,41.20715-70.71779,67.51633-70.30573a16.071,16.071,0,0,1,7.51237,1.71169l-5.70562-5.59466-35.02608-34.40795h-.09509a4.18486,4.18486,0,0,0-.45963,0c-31.9038-3.043-76.53431,43.44182-73.36453,75.80527a127.04392,127.04392,0,0,0,8.79612,9.50934h0a198.69779,198.69779,0,0,1,29.891,27.799c3.16978,2.78942,5.15089,4.517,5.15089,4.517l.23772-.23773C556.29644,450.1962,555.09191,446.77288,554.71155,443.2861Z"/>
    <path class="k" d="M590.26063,466.63155c-8.59013-8.495-2.63092-28.97179,13.424-45.96181s36.45247-24.122,45.26446-15.8489h0a11.3481,11.3481,0,0,1,1.09358,1.22034h0l-17.101-28.25859a8.66959,8.66959,0,0,0-3.32828-3.16978,16.071,16.071,0,0,0-7.51236-1.71169c-26.30919-.41206-70.52762,44.59879-67.51633,70.30576.41208,3.48677,1.58489,6.91009,4.45353,8.79612.25359.1585.47545.317.7449.45963l33.2827,16.49871c-.23773-.22191-.45963-.45963-.69736-.71322a11.58842,11.58842,0,0,1-2.01279-1.58489S590.324,466.6791,590.26063,466.63155Z"/>
    <path class="q" d="M650.07442,406.13627a11.34756,11.34756,0,0,0-1.09358-1.22037h0c-8.8754-8.32067-29.11443-1.26792-45.26446,15.84888s-22.01415,37.451-13.424,45.96181a1.16661,1.16661,0,0,0,.1585.17432,11.5889,11.5889,0,0,0,2.01279,1.58489c9.652,5.83238,28.24275-1.37885,43.28335-17.2753C651.168,434.7277,657.26978,415.24939,650.07442,406.13627Z"/>
    <path class="b" d="M269.79584,420.98669h0c3.99393-3.99391,7.46485-7.67087,9.76293-10.5237,3.16978-32.49025-42.03129-79.35546-73.93514-75.75775l-.23772.23772-34.75664,34.13852-5.73731,5.62637a16.07089,16.07089,0,0,1,7.51238-1.71168c26.30917-.41207,70.52762,44.59883,67.51632,70.3057-.41207,3.48678-1.58489,6.9101-4.45354,8.79612l.23772.23772s3.97807-3.43923,9.60443-8.47917A206.52664,206.52664,0,0,1,269.79584,420.98669Z"/>
    <path class="k" d="M239.93652,443.2861c3.01128-25.70692-41.20714-70.71779-67.51632-70.30573a16.071,16.071,0,0,0-7.51237,1.71169,8.66942,8.66942,0,0,0-3.32827,3.16978l-17.101,28.322h0a11.34852,11.34852,0,0,1,1.09358-1.22037h0c8.87538-8.32068,29.11444-1.26792,45.26446,15.84892s22.01412,37.451,13.424,45.96182a1.1662,1.1662,0,0,1-.1585.17431,11.5846,11.5846,0,0,1-2.0128,1.58489c-.23774.25359-.45962.49131-.69736.71322L234.6747,452.7479c.26943-.14264.49131-.30113.7449-.45963C238.38333,450.1962,239.52446,446.77288,239.93652,443.2861Z"/>
    <path class="q" d="M204.35574,466.63155c8.5901-8.495,2.63092-28.97179-13.424-45.96181s-36.45247-24.122-45.26446-15.8489h0a11.34917,11.34917,0,0,0-1.09358,1.22034c-7.1954,9.0339-1.09358,28.528,14.3591,44.91578,15.04061,15.84891,33.63137,23.10768,43.28335,17.2753a11.58635,11.58635,0,0,0,2.01282-1.58489A.12584.12584,0,0,0,204.35574,466.63155Z"/>
    <path class="b" d="M450.80616,440.40159a17.84588,17.84588,0,0,0-17.79833-17.79833h-72.683a17.84584,17.84584,0,0,0-17.78247,17.79833h0v1.41058a416.25545,416.25545,0,0,0,58.76773,3.02714,418.40565,418.40565,0,0,0,49.38516-3.55014v-.88753Z"/>
    <path class="p" d="M523.85374,420.00406h0s-16.41944,10.71387-53.69608,18.0836c-5.92748,1.17281-12.36213,2.26639-19.38323,3.16978a418.40538,418.40538,0,0,1-49.38518,3.55014,416.25553,416.25553,0,0,1-58.76773-3.02714c-5.03994-.64981-9.79461-1.37885-14.264-2.15543-40.52563-7.03692-58.54585-18.67-58.54585-18.67h0a206.52911,206.52911,0,0,0-24.48652,22.8224c-9.76293,10.84065-18.93944,24.02694-19.92206,36.00871a2.71015,2.71015,0,0,0,1.58489,2.726c89.467,39.81244,254.02619,48.18065,340.054.66568a5.48375,5.48375,0,0,0,2.71015-5.5788c-1.363-9.98479-8.08295-20.60357-15.99154-29.85932A198.6983,198.6983,0,0,0,523.85374,420.00406Z"/>
    <path class="i" d="M618.63015,138.67021s-196.52638-124.27125-444.02283,0C424.30679,16.079,618.63015,138.67021,618.63015,138.67021Z"/>
    <path class="r" d="M618.61434,138.65437h-.111c-.1585-.09509-.44376-.28528-.87167-.523a.38052.38052,0,0,0-.14263-.09509l-.41209-.23774-.14263-.09509h-.25359l-.28527-.15848h0l-.69735-.41208h0l-.26946-.14263h-.111l-1.58489-.91924c-.729-.41207-1.58489-.85584-2.3932-1.31546h-.07923l-1.157-.634-.80831-.44377c-1.58489-.82414-3.32828-1.75923-5.26185-2.74186l-1.9177-.96679-2.58333-1.58489c-2.53584-1.25206-5.32521-2.58336-8.35236-3.96222l-1.75925-.79245-2.63092-1.18867-2.74188-1.20451c-4.89731-2.12375-10.25424-4.3426-16.08663-6.59314-1.363-.53886-2.75769-1.07773-4.18413-1.58489l-3.50259-1.29961q-3.42337-1.23623-7.03692-2.50413c-5.65807-1.96526-11.66477-3.91468-17.97265-5.81654l-4.19995-1.23622-2.75769-.79244c-2.52-.72905-5.08749-1.42641-7.70254-2.12376q-5.769-1.58487-11.83914-2.97959h-.317a3.471,3.471,0,0,1-.77658-.19019c-3.80373-.88754-7.67087-1.75922-11.63309-2.58337l-3.42337-.69735c-2.31393-.47546-4.67545-.93508-7.05278-1.37885l-6.52974-1.157-4.84976-.80829c-2.85278-.44377-5.72143-.87169-8.63767-1.28376l-2.93206-.41207-1.37884-.19019-3.20146-.53887-3.93055-.47547-2.59924-.30113-4.56449-.47546-4.31091-.41207q-3.58189-.33282-7.22709-.61811l-4.10486-.28528c-2.7577-.19018-5.53125-.34867-8.33654-.49132l-3.043-.12679-2.58338-.11094c-2.04452-.07924-4.089-.14264-6.16525-.19019q-2.61507,0-5.27766-.09509H388.23461l-2.9162.07924c-2.91619.0951-5.84824.206-8.812.34868l-5.07164.28528c-2.1713.12679-4.34261.28528-6.54561.44377l-3.26487.25358c-2.0445.15849-4.089.34868-6.14938.53886l-3.05883.30113-4.56449.47546-2.74185.317-3.36.39623-4.35845.57056c-7.46484.99848-15.02475,2.1713-22.67977,3.566l-2.37734.44377-1.31546.25358-2.37733.45962h-.23773l-.7766.15849-1.74339.33282-3.94639.82415-3.043.63395-.38039.0951-3.09053.6815q-4.89731,1.09358-9.84218,2.31394H285.502l-3.16979.80829c-2.203.55471-4.42183,1.12527-6.64069,1.72753q-11.744,3.16979-23.77335,6.97352l-3.16978,1.06188c-1.14112.38037-2.28225.7449-3.42337,1.14112-3.7245,1.25206-7.48068,2.55167-11.23687,3.91468-2.6943.98264-5.40448,1.98111-8.11463,3.02715q-7.5599,2.86865-15.215,6.05428l-3.50262,1.47394-3.50262,1.58489-3.51845,1.58489c-2.36149,1.03018-4.75467,2.09206-7.06861,3.16978-4.75467,2.21885-9.68368,4.51694-14.5493,6.926l-3.91468,1.93357,19.20888-54.23495s16.18172-9.018,44.37691-19.11377c9.76293-3.50261,20.95225-7.132,33.40949-10.53953,60.22582-16.60964,150.02568-28.528,249.87376,1.09358Q539.80554,61.26417,558.42,68.523q17.59226,6.97353,35.454,15.8489Z"/>
    <path class="l" d="M174.60735,138.67021l10.8248,7.55993S383.65437,26.69773,607.108,146.08751l11.50632-7.41729S425.57469,13.73332,174.60735,138.67021Z"/>
  </g>
</svg>
