<svg xmlns="http://www.w3.org/2000/svg" xmlns:xlink="http://www.w3.org/1999/xlink" viewBox="0 0 149.78 149.88"><defs><style>.a{fill:#3f3b41;}.b{fill:#e6302d;}.c{fill:url(#a);}.d{fill:url(#b);}</style><radialGradient id="a" cx="45.34" cy="150.77" r="188.26" gradientUnits="userSpaceOnUse"><stop offset="0" stop-color="#e6302d"/><stop offset="0.13" stop-color="#e63434"/><stop offset="0.33" stop-color="#e83f47"/><stop offset="0.56" stop-color="#ea5167"/><stop offset="0.82" stop-color="#ec6a93"/><stop offset="0.96" stop-color="#ee79ad"/></radialGradient><radialGradient id="b" cx="83.41" cy="32.25" r="132.9" gradientUnits="userSpaceOnUse"><stop offset="0" stop-color="#e6302d" stop-opacity="0"/><stop offset="0.1" stop-color="#e6302d" stop-opacity="0.02"/><stop offset="0.24" stop-color="#e6302d" stop-opacity="0.09"/><stop offset="0.38" stop-color="#e6302d" stop-opacity="0.21"/><stop offset="0.54" stop-color="#e6302d" stop-opacity="0.36"/><stop offset="0.71" stop-color="#e6302d" stop-opacity="0.57"/><stop offset="0.88" stop-color="#e6302d" stop-opacity="0.81"/><stop offset="1" stop-color="#e6302d"/></radialGradient></defs><path class="a" d="M142.88,106.27A74.86,74.86,0,0,1,4.74,48.77C15.31,62.57,35,78.44,69.78,80,128.52,82.69,131.08,94.84,142.88,106.27Z"/><path class="b" d="M126.06,129.62A74.85,74.85,0,0,1,0,75c0-.72,0-1.44,0-2.16a76.73,76.73,0,0,0,126,56.75Z"/><path class="c" d="M74.93,0A74.86,74.86,0,0,0,4.82,48.59c10.57,13.8,30.21,29.67,65,31.25,58.74,2.67,61.3,14.82,73.1,26.25A74.87,74.87,0,0,0,74.93,0Z"/><path class="d" d="M142.88,106.27A74.86,74.86,0,0,1,4.74,48.77C15.31,62.57,35,78.44,69.78,80,128.52,82.69,131.08,94.84,142.88,106.27Z"/></svg>