<svg xmlns="http://www.w3.org/2000/svg" xmlns:xlink="http://www.w3.org/1999/xlink" width="22.08353mm" height="39.79661mm" viewBox="0 0 62.59897 112.80929">
  <defs>
    <style>
      .a {
        fill: url(#a);
      }

      .b {
        fill: url(#b);
      }

      .c {
        fill: url(#c);
      }

      .d {
        fill: url(#d);
      }

      .e {
        fill: url(#e);
      }

      .f {
        fill: url(#f);
      }
    </style>
    <linearGradient id="a" data-name="Безымянный градиент 8" x1="51.0582" y1="4.32882" x2="51.0582" y2="44.05353" gradientTransform="matrix(1, 0, 0, -1, 0, 115.78104)" gradientUnits="userSpaceOnUse">
      <stop offset="0" stop-color="#3c75a3"/>
      <stop offset="0.11" stop-color="#336389"/>
      <stop offset="0.27" stop-color="#244c68"/>
      <stop offset="0.44" stop-color="#18394e"/>
      <stop offset="0.61" stop-color="#122d3c"/>
      <stop offset="0.79" stop-color="#0b2531"/>
      <stop offset="1" stop-color="#0a232e"/>
    </linearGradient>
    <linearGradient id="b" data-name="Безымянный градиент 9" x1="31.29949" y1="115.8966" x2="31.29949" y2="3.0873" gradientTransform="matrix(1, 0, 0, -1, 0, 115.78104)" gradientUnits="userSpaceOnUse">
      <stop offset="0" stop-color="#0a232e"/>
      <stop offset="0.15" stop-color="#0f2937"/>
      <stop offset="0.4" stop-color="#193a4f"/>
      <stop offset="0.71" stop-color="#2a5677"/>
      <stop offset="1" stop-color="#3c75a3"/>
    </linearGradient>
    <linearGradient id="c" data-name="Безымянный градиент 10" x1="11.44511" y1="7.26822" x2="11.44511" y2="46.60937" gradientTransform="matrix(1, 0, 0, -1, 0, 115.78104)" gradientUnits="userSpaceOnUse">
      <stop offset="0" stop-color="#3c75a3"/>
      <stop offset="0.26" stop-color="#2d5a7c"/>
      <stop offset="0.59" stop-color="#1a3c52"/>
      <stop offset="0.85" stop-color="#0f2b39"/>
      <stop offset="1" stop-color="#0a232e"/>
    </linearGradient>
    <linearGradient id="d" data-name="Безымянный градиент 11" x1="31.92553" y1="6.24913" x2="31.92553" y2="49.42807" gradientTransform="matrix(1, 0, 0, -1, 0, 115.78104)" gradientUnits="userSpaceOnUse">
      <stop offset="0" stop-color="#3c75a3"/>
      <stop offset="0.12" stop-color="#316186"/>
      <stop offset="0.27" stop-color="#234a66"/>
      <stop offset="0.43" stop-color="#18394d"/>
      <stop offset="0.6" stop-color="#122d3c"/>
      <stop offset="0.79" stop-color="#0b2531"/>
      <stop offset="1" stop-color="#0a232e"/>
    </linearGradient>
    <linearGradient id="e" data-name="Безымянный градиент 13" x1="27.86112" y1="79.61847" x2="44.97794" y2="79.61847" gradientTransform="matrix(1, 0, 0, -1, 0, 115.78104)" gradientUnits="userSpaceOnUse">
      <stop offset="0" stop-color="#0a232e"/>
      <stop offset="1" stop-color="#3b4c55"/>
    </linearGradient>
    <linearGradient id="f" x1="26.49815" y1="79.60263" x2="46.30926" y2="79.60263" xlink:href="#e"/>
  </defs>
  <g>
    <path class="a" d="M50.46167,71.7275a37.91142,37.91142,0,0,0-6.18106,6.87842,21.98247,21.98247,0,0,1,1.71168,12.29874c-.57056,3.05883-1.82261,9.81048-5.1826,14.61269a10.79266,10.79266,0,0,0,2.1713,3.26487,10.14331,10.14331,0,0,0,7.54409,2.64676c6.19692,0,9.71538-6.05429,10.72969-18.40057C62.174,81.91836,50.58849,71.82261,50.46167,71.7275Z"/>
    <path class="b" d="M51.793,71.31544a118.53378,118.53378,0,0,0,4.3109-23.06015c2.203-22.87-12.1561-43.64788-15.05645-47.54671A1.68,1.68,0,0,0,39.827.01123a1.58487,1.58487,0,0,0-1.31546.45961C34.91388,3.76742,16.87784,21.43895,14.73823,44.3089a147.18824,147.18824,0,0,0-.7449,25.35824C10.253,72.42486,2.23345,79.27157.807,88.16281c-1.03017,6.41881-1.58489,12.96439,1.58489,17.307A7.924,7.924,0,0,0,3.644,106.84865a11.91832,11.91832,0,0,0,6.56144,2.93206,10.39527,10.39527,0,0,0,1.58489.12679A10.064,10.064,0,0,0,20,105.15283a14.16825,14.16825,0,0,0,1.046,1.50564,13.26555,13.26555,0,0,0,9.43009,4.37429,8.766,8.766,0,0,0,1.09358,0,10.71384,10.71384,0,0,0,8.51085-4.2792,11.53822,11.53822,0,0,0,2.13962,3.05883,9.73116,9.73116,0,0,0,4.23165,2.44072,13.55051,13.55051,0,0,0,4.04145.55472h.12677c10.31765,0,11.538-14.70778,11.93422-19.51C63.31515,82.85344,54.13863,73.51844,51.793,71.31544ZM10.30056,108.48111a10.14332,10.14332,0,0,1-7.03692-3.83543,5.0886,5.0886,0,0,1-.45961-.72906.95057.95057,0,0,1-.14263-.23772,7.92388,7.92388,0,0,1-.41206-.82415,11.55428,11.55428,0,0,1-.61811-1.80678,3.5985,3.5985,0,0,1-.09509-.39622,1.31446,1.31446,0,0,0,0-.23772v-.28527a4.41968,4.41968,0,0,0-.111-.60227c-.09509-.66565-.1585-1.363-.19018-2.06036V96.27746a51.06278,51.06278,0,0,1,.79244-8.0354C3.81839,77.14783,16.45,69.33432,16.71939,69.22338a40.87486,40.87486,0,0,1,5.11919,8.33651,23.64636,23.64636,0,0,0-3.80373,10.31763c0,.76074-.14263,1.58489-.19018,2.29808a16.96313,16.96313,0,0,1-.11095,1.87016v5.04a14.57283,14.57283,0,0,0,.19018,1.58489c.07922.49132.09509.64981.1585.96679a16.00754,16.00754,0,0,0,.69735,2.6626,3.64622,3.64622,0,0,0,.19018.53886c.111.28527.22189.57056.34868.84C16.8303,107.4034,13.86656,108.95658,10.30056,108.48111Zm20.144,1.046a11.75987,11.75987,0,0,1-8.495-3.91468l-.42793-.55472a9.80982,9.80982,0,0,1-.7449-1.17282l-.317-.61811a12.219,12.219,0,0,1-.523-1.3313,12.92884,12.92884,0,0,1-.41206-1.39471c-.11095-.47548-.22188-.96679-.30113-1.47394s-.111-.79245-.1585-1.17283-.07925-.71319-.09509-1.06187,0-.60227,0-.9034v-5.1826L19.065,89.51a5.6765,5.6765,0,0,1,.12679-1.4581c1.157-12.14026,14.96137-21.52281,15.104-21.6179h.2853l.206.206.523.58642.50717.55471c.53886.634,1.22038,1.44225,1.94941,2.409l.42793.5547c.28527.39623.57056.79245.85583,1.22036l.47547.69736.47547.72906c.1585.23772.317.49131.45961.7449s.45961.76074.68149,1.157c.47547.84.91924,1.69585,1.3313,2.59922.19018.42793.38039.85583.55472,1.29962s.23773.60227.34868.9034l.33284.93508q.15849.47547.28527.951c.09509.317.17434.63394.25359.95094.15849.634.28526,1.28376.38038,1.93357a2.708,2.708,0,0,0,.12679.99849,2.562,2.562,0,0,1,0,.98262h0V88.353a4.808,4.808,0,0,1-.07925,1.12528c-.07925.38039-.09509.72906-.1585,1.10942-2.31395,13.36061-6.95769,19.47829-14.02628,18.876Zm30.7627-16.4353c-1.01435,12.34629-4.53276,18.36887-10.72969,18.40058H48.78171l-.76074-.09509-.71319-.14264-.79245-.22188-.523-.17434-.49132-.19018a6.03678,6.03678,0,0,1-.9034-.45961h0l-.71319-.47547-.26943-.22188a6.9111,6.9111,0,0,1-.634-.55472,10.79263,10.79263,0,0,1-2.17129-3.26487c3.36-4.75467,4.612-11.55384,5.1826-14.61269,0-.36452.12679-.7132.1585-1.06188a6.19051,6.19051,0,0,1,.09509-1.07771,2.38662,2.38662,0,0,0,0-.82415v-.23777a20.00226,20.00226,0,0,0-.14264-2.39318A7.68227,7.68227,0,0,0,45.929,84.2957c-.06338-.39623-.111-.57057-.15849-.84a.45918.45918,0,0,1,0-.14264,3.02574,3.02574,0,0,0-.17434-.64981,1.85559,1.85559,0,0,0-.07925-.317,3.32548,3.32548,0,0,0-.09509-.38038,2.71453,2.71453,0,0,0-.22189-.77661,26.75217,26.75217,0,0,0-.91923-2.53583A37.91072,37.91072,0,0,1,50.46172,71.775c.12677.04756,11.71231,10.14331,10.79305,21.25338Z"/>
    <path class="c" d="M19.271,103.72644c-2.02866-4.406-1.886-10.15915-1.3313-15.8489a23.64645,23.64645,0,0,1,3.80373-10.31763,40.87377,40.87377,0,0,0-5.11919-8.33652c-.26943,0-12.901,7.92446-14.69194,19.01869C.93385,94.4073.4267,100.66761,3.31119,104.6457a10.1432,10.1432,0,0,0,6.98937,3.83541C13.86656,108.95658,16.8303,107.4034,19.271,103.72644Z"/>
    <path class="d" d="M44.661,90.66694c2.203-11.93422-9.9531-24.15373-10.0799-24.26467s0,0-.12679,0H34.375c-.14264.09509-13.947,9.50934-15.104,21.6179-.63395,6.65654-.7449,13.39232,2.726,17.56059a11.75991,11.75991,0,0,0,8.495,3.91468C37.56066,110.066,42.2044,103.94832,44.661,90.66694Z"/>
    <path class="e" d="M36.41954,44.721a8.55841,8.55841,0,1,0-8.55842-8.5584l0,.01584A8.5584,8.5584,0,0,0,36.41954,44.721Z"/>
    <path class="f" d="M36.41954,26.27285a9.90557,9.90557,0,1,0,9.8897,9.9214l0-.01583A9.90557,9.90557,0,0,0,36.41954,26.27285Zm0,18.44813a8.55841,8.55841,0,1,1,8.54256-8.57423q0,.01584,0,.03167A8.55841,8.55841,0,0,1,36.41954,44.721Z"/>
  </g>
</svg>
